<?xml version="1.0" encoding="UTF-8" standalone="no"?>
<!DOCTYPE svg PUBLIC "-//W3C//DTD SVG 1.1//EN" "http://www.w3.org/Graphics/SVG/1.1/DTD/svg11.dtd">
<svg width="100%" height="100%" viewBox="0 0 32 32" version="1.1" xmlns="http://www.w3.org/2000/svg" xmlns:xlink="http://www.w3.org/1999/xlink" xml:space="preserve" xmlns:serif="http://www.serif.com/" style="fill-rule:evenodd;clip-rule:evenodd;stroke-linejoin:round;stroke-miterlimit:1.5;">
    <g transform="matrix(1,0,0,1,-0.214991,-0.214991)">
        <g transform="matrix(0.077996,0,0,0.077996,-3.30939,-3.99133)">
            <circle cx="247.569" cy="256.312" r="202.382"/>
        </g>
        <g transform="matrix(0.589994,0,0,0.589994,6.5708,6.5429)">
            <g transform="matrix(1,0,0,1,0,1.19692)">
                <path d="M0.985,2.951L30.979,2.951" style="fill:none;stroke:white;stroke-width:7.06px;"/>
            </g>
            <g transform="matrix(1,0,0,1,0,24.9593)">
                <path d="M0.985,2.951L30.979,2.951" style="fill:none;stroke:white;stroke-width:7.06px;"/>
            </g>
            <g transform="matrix(1.17806,0,0,0.968935,7.08621,1.47226)">
                <path d="M8.158,15.096L15.947,15.096" style="fill:none;stroke:white;stroke-width:6.55px;"/>
            </g>
            <g transform="matrix(1,0,0,1,4.92794,0)">
                <path d="M11.054,4.922L11.054,27.277" style="fill:none;stroke:white;stroke-width:7.06px;"/>
            </g>
        </g>
    </g>
</svg>
